<?xml version="1.0" standalone="no"?>
<!DOCTYPE svg PUBLIC "-//W3C//DTD SVG 20010904//EN"
 "http://www.w3.org/TR/2001/REC-SVG-20010904/DTD/svg10.dtd">
<svg version="1.0" xmlns="http://www.w3.org/2000/svg"
 width="500.000000pt" height="500.000000pt" viewBox="0 0 500.000000 500.000000"
 preserveAspectRatio="xMidYMid meet">

<g transform="translate(0.000000,500.000000) scale(0.100000,-0.100000)"
fill="#000000" stroke="none">
<path d="M624 3621 c-107 -49 -138 -190 -62 -277 64 -72 28 -69 673 -72 413
-2 595 0 633 8 165 36 203 235 64 331 l-36 24 -615 2 c-585 3 -618 2 -657 -16z"/>
<path d="M2062 3288 c-17 -17 -17 -399 0 -416 7 -7 23 -12 38 -12 50 0 55 11
60 131 l5 112 39 -57 c67 -98 92 -98 163 2 l48 67 3 -120 c3 -126 6 -135 53
-135 47 0 49 10 49 227 l0 203 -25 6 c-46 12 -69 -4 -138 -96 -38 -49 -70 -90
-71 -90 -2 0 -30 35 -62 77 -33 43 -67 85 -76 95 -21 21 -68 24 -86 6z"/>
<path d="M624 3171 c-131 -60 -140 -246 -16 -319 l47 -27 465 0 c514 0 497 -2
554 65 68 82 49 208 -41 270 l-37 25 -465 2 c-438 3 -468 2 -507 -16z"/>
<path d="M2646 3157 c-100 -57 -103 -207 -5 -279 32 -24 125 -34 173 -18 48
16 63 43 41 76 -15 23 -21 25 -58 18 -57 -10 -89 -7 -106 11 -14 13 -6 15 67
15 99 0 122 15 122 81 0 35 -6 48 -39 80 -36 37 -42 39 -97 39 -43 0 -70 -7
-98 -23z m119 -80 c27 -21 9 -37 -41 -37 -49 0 -56 11 -22 34 27 20 39 20 63
3z"/>
<path d="M2990 3173 c-38 -14 -60 -47 -60 -89 0 -57 30 -92 95 -108 27 -7 51
-18 53 -24 6 -18 -42 -15 -82 5 -34 16 -37 16 -56 -2 -13 -12 -20 -29 -18 -44
2 -22 12 -29 57 -44 107 -35 201 7 201 90 0 56 -22 80 -88 99 -31 9 -61 20
-66 25 -17 16 25 22 67 9 38 -11 42 -10 59 10 26 33 22 49 -17 66 -34 14 -115
18 -145 7z"/>
<path d="M3290 3173 c-38 -14 -60 -47 -60 -89 0 -57 30 -92 95 -108 27 -7 51
-18 53 -24 6 -18 -42 -15 -82 5 -34 16 -37 16 -56 -2 -13 -12 -20 -29 -18 -44
2 -22 12 -29 57 -44 107 -35 201 7 201 90 0 56 -22 80 -88 99 -31 9 -61 20
-66 25 -17 16 25 22 67 9 38 -11 42 -10 59 10 26 33 22 49 -17 66 -34 14 -115
18 -145 7z"/>
<path d="M3620 3169 c-59 -24 -100 -85 -100 -148 0 -53 12 -80 51 -119 38 -37
87 -49 130 -32 23 10 33 10 42 1 19 -19 75 -14 87 8 5 11 10 76 10 145 0 100
-3 128 -16 140 -19 20 -54 21 -79 2 -15 -11 -22 -11 -44 0 -30 16 -46 17 -81
3z m96 -124 c15 -23 15 -27 0 -50 -10 -15 -26 -25 -41 -25 -15 0 -31 10 -41
25 -15 23 -15 27 0 50 10 15 26 25 41 25 15 0 31 -10 41 -25z"/>
<path d="M3980 3169 c-116 -47 -134 -205 -31 -275 38 -26 99 -32 119 -12 19
19 28 -1 11 -30 -19 -34 -42 -38 -91 -16 -40 18 -41 18 -59 -5 -27 -34 -23
-59 12 -80 72 -44 152 -34 209 24 l35 36 3 170 c2 121 0 174 -9 185 -15 18
-63 18 -78 0 -10 -12 -16 -12 -39 0 -31 16 -47 17 -82 3z m88 -111 c7 -7 12
-24 12 -40 0 -50 -66 -62 -91 -17 -23 43 44 92 79 57z"/>
<path d="M4316 3157 c-100 -57 -103 -207 -5 -279 32 -24 125 -34 173 -18 48
16 63 43 41 76 -15 23 -21 25 -58 18 -57 -10 -89 -7 -106 11 -14 13 -6 15 67
15 99 0 122 15 122 81 0 35 -6 48 -39 80 -36 37 -42 39 -97 39 -43 0 -70 -7
-98 -23z m119 -80 c27 -21 9 -37 -41 -37 -49 0 -56 11 -22 34 27 20 39 20 63
3z"/>
<path d="M657 2736 c-144 -40 -186 -215 -74 -313 56 -49 104 -55 474 -51 319
3 329 4 370 26 98 52 129 176 68 263 -17 23 -48 52 -70 63 -38 20 -57 21 -380
23 -256 2 -352 -1 -388 -11z"/>
<path d="M2165 2698 c-56 -29 -85 -57 -106 -103 -56 -122 14 -272 145 -310 61
-18 109 -13 167 16 55 28 59 49 17 96 l-20 21 -45 -20 c-85 -38 -173 8 -173
91 0 72 30 111 98 126 24 5 43 1 72 -14 45 -23 62 -20 85 15 22 35 11 59 -39
83 -57 28 -147 28 -201 -1z"/>
<path d="M3615 2688 c-2 -7 -6 -31 -7 -52 -2 -30 -8 -40 -22 -42 -53 -8 -47
-104 6 -104 16 0 18 -9 18 -71 0 -39 5 -79 10 -90 15 -27 63 -49 110 -49 33 0
42 4 52 25 16 36 -2 73 -39 77 -26 3 -28 6 -31 55 l-3 52 43 3 c43 3 43 3 46
45 3 34 -1 44 -18 53 -12 7 -32 9 -45 6 -23 -6 -24 -3 -27 46 l-3 53 -43 3
c-28 2 -44 -1 -47 -10z"/>
<path d="M2542 2584 c-96 -49 -116 -182 -38 -260 105 -105 278 -33 278 116 0
93 -56 152 -151 157 -38 3 -66 -2 -89 -13z m126 -112 c6 -9 12 -24 12 -34 0
-24 -35 -58 -60 -58 -25 0 -60 34 -60 58 0 54 73 77 108 34z"/>
<path d="M2848 2589 c-26 -15 -26 -180 1 -229 36 -68 118 -100 168 -65 18 13
22 13 33 0 7 -8 24 -15 39 -15 51 0 56 11 59 131 5 144 -1 177 -34 185 -14 4
-36 2 -50 -5 -22 -10 -24 -16 -24 -86 0 -91 -10 -115 -48 -115 -43 0 -52 17
-52 97 0 60 -4 77 -20 93 -22 22 -46 25 -72 9z"/>
<path d="M3218 2589 c-16 -9 -18 -27 -18 -147 0 -146 5 -162 46 -162 49 0 54
8 54 84 0 84 15 120 51 124 45 5 59 -20 59 -107 0 -84 9 -101 49 -101 51 0 56
12 55 113 0 103 -15 142 -67 181 -34 25 -100 28 -123 4 -15 -15 -18 -14 -35 3
-21 21 -45 24 -71 8z"/>
<path d="M3852 2584 c-12 -8 -22 -22 -22 -31 0 -8 29 -64 65 -123 l65 -107
-33 -73 -32 -72 24 -19 c14 -11 36 -19 50 -17 23 3 35 24 113 198 49 107 87
204 86 215 -4 24 -49 51 -72 42 -10 -4 -32 -39 -49 -77 -17 -39 -33 -70 -37
-70 -3 0 -26 34 -50 75 -47 80 -65 90 -108 59z"/>
<path d="M664 2291 c-56 -14 -102 -50 -124 -97 -45 -91 -10 -197 80 -245 31
-17 60 -19 288 -19 213 0 258 3 285 16 76 38 111 100 105 180 -6 64 -37 114
-93 146 -38 22 -50 23 -275 25 -129 1 -249 -2 -266 -6z"/>
</g>
</svg>
